<?xml version="1.0" encoding="utf-8"?>
<!-- Generator: Adobe Illustrator 19.0.0, SVG Export Plug-In . SVG Version: 6.00 Build 0)  -->
<svg version="1.1" id="Layer_1" xmlns="http://www.w3.org/2000/svg" xmlns:xlink="http://www.w3.org/1999/xlink" x="0px" y="0px"
	 viewBox="-176 0 607 560" style="enable-background:new -176 0 607 560;" xml:space="preserve">
<style type="text/css">
	.st0{display:none;fill:#0000FF;}
	.st1{fill:#4B85E2;}
	.st2{fill:#0055FF;}
	.st3{fill:#FFFF00;stroke:#000000;stroke-width:3;stroke-miterlimit:10;}
	.st4{fill:none;stroke:#000000;stroke-width:3;stroke-miterlimit:10;}
	.st5{fill:#FFFFFF;stroke:#000000;stroke-width:3;stroke-miterlimit:10;}
	.st6{fill:none;stroke:#000000;stroke-width:2;stroke-miterlimit:10;}
	.st7{fill:#FFFF00;}
	.st8{fill:none;}
	.st9{fill:none;stroke:#000000;stroke-miterlimit:10;}
	.st10{font-family:'MVBoli';}
	.st11{font-size:60px;}
</style>
<rect id="XMLID_13_" x="-1.5" y="139.3" class="st0" width="204.2" height="185.5"/>
<ellipse id="XMLID_15_" class="st1" cx="133.1" cy="281.6" rx="225.6" ry="222.1"/>
<ellipse id="XMLID_14_" class="st2" cx="132.2" cy="285" rx="207" ry="203.7"/>
<path id="XMLID_2_" class="st3" d="M273.1,338c0,70.1-63.4,127-141.6,127S-10.1,408.1-10.1,338c0-50.4,32.7-94,80.2-114.5
	c18.6-8,39.4-12.5,61.4-12.5c24.8,0,48.1,5.7,68.4,15.8C243.6,248.4,273.1,290.1,273.1,338z"/>
<path id="XMLID_4_" class="st4" d="M426.5,398.4c0,84.3-78.1,152.6-174.6,152.6"/>
<path id="XMLID_6_" class="st4" d="M423.1,163.6C423.1,79.2,345,11,248.5,11"/>
<path id="XMLID_7_" class="st4" d="M-165.5,163.6C-165.5,79.2-87.4,11,9.1,11"/>
<path id="XMLID_8_" class="st4" d="M-162.1,395.5c0,84.3,78.1,152.6,174.6,152.6"/>
<path id="XMLID_12_" class="st4" d="M391.6,387.9c0,73.9-68.4,133.7-153,133.7"/>
<path id="XMLID_10_" class="st4" d="M388.6,182.1c0-73.9-68.4-133.7-153-133.7"/>
<path id="XMLID_9_" class="st4" d="M-127.2,182.1c0-73.9,68.4-133.7,153-133.7"/>
<path id="XMLID_3_" class="st4" d="M-124.2,385.4c0,73.9,68.4,133.7,153,133.7"/>
<ellipse id="XMLID_1_" class="st5" cx="133.1" cy="163.6" rx="76.4" ry="73.3"/>
<g id="XMLID_16_">
	<g id="XMLID_40_">
		<path id="XMLID_45_" d="M101.6,139.8c3.9,0,3.9-6,0-6C97.8,133.8,97.8,139.8,101.6,139.8L101.6,139.8z"/>
	</g>
</g>
<g id="XMLID_17_">
	<g id="XMLID_46_">
		<path id="XMLID_50_" d="M164.2,137.8c3.9,0,3.9-6,0-6C160.3,131.8,160.3,137.8,164.2,137.8L164.2,137.8z"/>
	</g>
</g>
<path id="XMLID_18_" class="st6" d="M171,187.7c-22,21.3-56.4,21.3-77,0"/>
<g id="XMLID_28_">
	<path id="XMLID_19_" d="M210.8,319.8H53.9c-4.9,0-9-4-9-9v-43.1c0-4.9,4-9,9-9h156.9c4.9,0,9,4,9,9v43.1
		C219.8,315.8,215.7,319.8,210.8,319.8z"/>
	<path id="XMLID_20_" class="st7" d="M190.6,282.6H71.6c-5.4,0-9.9,4.5-9.9,9.9v47.6c0,5.4,4.4,9.9,9.9,9.9h119.1
		c5.4,0,9.9-4.5,9.9-9.9v-47.6C200.5,287.1,196.1,282.6,190.6,282.6z"/>
	<line id="XMLID_21_" class="st8" x1="69.2" y1="300.6" x2="45" y2="402.2"/>
	<rect id="XMLID_22_" x="68.6" y="273.9" class="st9" width="124.6" height="143"/>
	<path id="XMLID_23_" class="st9" d="M76.8,379.5c0,15,11,27.1,24.7,27.1"/>
	<path id="XMLID_24_" class="st9" d="M183.5,379.5c0,15-11,27.1-24.7,27.1"/>
</g>
<g>
	<g>
		<g>
			<path d="M125.7,298.6c-16.7,0-30.2,13.6-30.2,30.2c0,21,27.3,48.5,28.4,49.6c0.5,0.5,1.1,0.7,1.8,0.7s1.3-0.2,1.8-0.7
				c1-1,1-2.6,0-3.6c-0.3-0.3-27-27.2-27-46.1c0-13.9,11.3-25.2,25.2-25.2s25.2,11.3,25.2,25.2c0,1.4-0.2,2.9-0.5,4.5
				c-0.3,1.4,0.6,2.7,2,3c1.4,0.3,2.7-0.6,3-2c0.4-1.9,0.6-3.8,0.6-5.5C155.9,312.1,142.4,298.6,125.7,298.6z"/>
		</g>
	</g>
	<g>
		<g>
			<path d="M125.7,313.7c-8.3,0-15.1,6.8-15.1,15.1c0,8.3,6.8,15.1,15.1,15.1s15.1-6.8,15.1-15.1C140.8,320.5,134,313.7,125.7,313.7
				z M125.7,338.9c-5.6,0-10.1-4.5-10.1-10.1s4.5-10.1,10.1-10.1s10.1,4.5,10.1,10.1S131.3,338.9,125.7,338.9z"/>
		</g>
	</g>
</g>
<text transform="matrix(1 0 0 1 128.7922 380)" class="st10 st11">$</text>
</svg>
